<mxfile host="app.diagrams.net" modified="2024-03-28T17:27:35.503Z" agent="Mozilla/5.0 (Macintosh; Intel Mac OS X 10_15_7) AppleWebKit/537.36 (KHTML, like Gecko) Chrome/123.0.0.0 Safari/537.36" version="24.2.1" etag="rV4ZaQdGYG74nVVrgYx1" type="github">
  <diagram name="Page-1" id="h0sDR8Bn_ffQkz-XCqY5">
    <mxGraphModel>
      <root>
        <mxCell id="0" />
        <mxCell id="1" parent="0" />
      </root>
    </mxGraphModel>
  </diagram>
</mxfile>
